# Blender v2.74 (sub 0) OBJ File: 'lazor.blend'
# www.blender.org
mtllib lazor.mtl
o Plane_Plane.003
v -0.200000 0.000000 1.000000
v 0.200000 0.000000 1.000000
v -0.200000 0.000000 -1.000000
v 0.200000 0.000000 -1.000000
vt 0.992188 0.890625
vt 0.007812 0.890625
vt 0.007812 0.109375
vt 0.992188 0.109375
vn 0.000000 1.000000 0.000000
usemtl None
s off
f 2/1/1 4/2/1 3/3/1
f 1/4/1 2/1/1 3/3/1
o Plane.001_Plane.004
v -0.000000 0.200000 1.000000
v 0.000000 -0.200000 1.000000
v -0.000000 0.200000 -1.000000
v 0.000000 -0.200000 -1.000000
vt 0.992188 0.890625
vt 0.007812 0.890625
vt 0.007812 0.109375
vt 0.992188 0.109375
vn 1.000000 0.000000 0.000000
usemtl None_13330-laserbeamblue.jpg.002
s off
f 6/5/2 8/6/2 7/7/2
f 5/8/2 6/5/2 7/7/2
