# Blender v2.74 (sub 0) OBJ File: ''
# www.blender.org
v -1.272748 0.960386 0.807304
v -1.272748 -0.039614 0.807304
v -0.406723 -0.539614 0.807304
v -0.674339 0.960386 -0.016336
v -0.674339 -0.039614 -0.016336
v 0.293907 0.960386 0.298267
v 0.293907 -0.039614 0.298267
v 0.293907 0.960386 1.316341
v 0.293907 -0.039614 1.316341
v -0.406723 1.460386 0.807304
v -0.674339 0.960386 1.630943
v -0.674339 -0.039614 1.630943
vt 0.474271 0.723607
vt 0.474271 0.447214
vt 0.737136 0.447214
vt 0.226259 0.361803
vt 0.226259 0.085410
vt 0.378955 0.085410
vt 0.474271 1.000000
vt 0.737136 0.723607
vt 0.757910 0.085410
vt 0.757910 0.361803
vt 0.605214 0.361803
vt 0.474271 0.564355
vt 0.474271 0.788829
vt 0.260637 0.722539
vt 0.019087 0.447214
vt 0.000000 0.223607
vt 0.237136 0.447214
vt 0.378955 0.223607
vt 0.398042 0.000000
vt 0.605214 0.085410
vt 0.019087 0.000000
vt 0.000000 0.447214
vt 0.237136 0.564355
vt 0.023502 0.722539
vt 0.398042 0.447213
vt 1.000000 0.447214
vt 1.000000 0.723607
vt 0.237136 0.788829
vt 0.378955 0.361803
vt 0.737136 1.000000
vn -0.809000 -0.000000 -0.587800
vn 0.309000 -0.000000 -0.951100
vn 1.000000 -0.000000 0.000000
vn 0.309000 0.000000 0.951100
vn -0.470000 -0.814000 -0.341400
vn -0.470000 0.814000 -0.341400
vn 0.179500 -0.814000 -0.552500
vn 0.179500 0.814000 -0.552500
vn 0.580900 -0.814000 0.000000
vn 0.580900 0.814000 0.000000
vn 0.179500 -0.814000 0.552500
vn 0.179500 0.814000 0.552500
vn -0.470000 -0.814000 0.341400
vn -0.809000 -0.000000 0.587800
vn -0.470000 0.814000 0.341400
s off
f 1/1/1 4/2/1 5/3/1
f 4/4/2 6/5/2 7/6/2
f 6/7/3 8/1/3 9/8/3
f 8/9/4 11/10/4 12/11/4
f 3/12/5 2/13/5 5/14/5
f 1/15/6 10/16/6 4/4/6
f 3/12/7 5/14/7 7/17/7
f 4/4/8 10/16/8 6/5/8
f 3/18/9 7/19/9 9/20/9
f 6/5/10 10/16/10 8/21/10
f 3/18/11 9/20/11 12/11/11
f 8/22/12 10/23/12 11/24/12
f 3/18/13 12/11/13 2/25/13
f 11/26/14 1/27/14 2/8/14
f 11/24/15 10/23/15 1/28/15
f 2/8/1 1/1/1 5/3/1
f 5/29/2 4/4/2 7/6/2
f 7/30/3 6/7/3 9/8/3
f 9/20/4 8/9/4 12/11/4
f 12/3/14 11/26/14 2/8/14
